<?xml version="1.0" standalone="no"?>
<!DOCTYPE svg PUBLIC "-//W3C//DTD SVG 20010904//EN"
 "http://www.w3.org/TR/2001/REC-SVG-20010904/DTD/svg10.dtd">
<svg version="1.0" xmlns="http://www.w3.org/2000/svg"
 width="1024.000000pt" height="1024.000000pt" viewBox="0 0 1024.000000 1024.000000"
 preserveAspectRatio="xMidYMid meet">
<metadata>
Created by potrace 1.14, written by Peter Selinger 2001-2017
</metadata>
<g transform="translate(0.000000,1024.000000) scale(0.100000,-0.100000)"
fill="#000000" stroke="none">
<path d="M1294 9919 c6 -253 10 -333 23 -419 3 -25 7 -52 8 -60 1 -8 6 -46 10
-85 5 -38 9 -72 10 -75 1 -5 13 -71 22 -120 52 -300 179 -704 316 -1010 70
-155 228 -454 287 -539 9 -15 50 -75 90 -136 67 -101 226 -313 282 -376 13
-15 50 -59 83 -98 57 -67 320 -331 395 -396 454 -394 943 -682 1480 -873 69
-24 130 -45 135 -46 6 -2 17 -6 25 -9 16 -6 102 -30 235 -66 109 -29 276 -65
355 -76 25 -3 52 -8 60 -10 22 -6 76 -13 155 -20 39 -4 72 -9 76 -11 3 -1 54
-6 115 -9 145 -9 174 -12 181 -19 5 -4 8 -1164 4 -1222 -1 -9 -29 -10 -98 -6
-138 9 -726 8 -860 -1 -138 -9 -220 -16 -253 -22 -14 -2 -52 -7 -85 -10 -33
-4 -67 -8 -75 -10 -8 -3 -31 -7 -50 -10 -253 -43 -479 -127 -639 -239 -134
-93 -259 -241 -339 -401 -47 -94 -113 -292 -128 -385 -2 -14 -11 -59 -19 -101
-8 -42 -18 -99 -20 -125 -3 -27 -10 -83 -15 -124 -18 -140 -24 -304 -24 -655
0 -356 6 -505 30 -695 2 -19 6 -57 10 -85 11 -97 56 -301 90 -407 149 -460
452 -714 979 -818 154 -31 183 -36 275 -45 30 -3 71 -8 90 -10 205 -26 1053
-26 1230 0 14 2 48 6 75 9 64 8 194 27 220 32 11 3 43 9 70 14 358 71 631 230
797 465 102 144 187 350 224 545 2 14 11 59 19 100 22 113 40 267 52 435 15
215 7 960 -12 1075 -2 14 -7 50 -10 80 -9 88 -15 132 -25 185 -5 28 -12 66
-15 85 -18 110 -74 288 -125 397 -58 125 -124 220 -219 314 -95 95 -187 160
-315 219 -77 36 -269 100 -341 113 -16 3 -56 11 -87 17 l-58 11 0 1340 c0
1064 3 1339 13 1340 41 2 209 19 238 24 13 2 58 9 99 15 178 28 522 126 669
191 145 65 196 89 286 138 140 75 131 70 229 135 208 135 372 270 535 440 109
112 111 115 161 176 25 30 47 57 50 60 3 3 26 32 51 65 205 273 394 642 487
950 43 142 61 206 66 235 3 14 14 72 24 130 11 58 23 134 27 170 4 36 9 74 12
85 2 11 7 125 10 254 l6 234 -209 -6 c-261 -7 -456 -27 -574 -57 -19 -5 -50
-12 -69 -15 -164 -28 -460 -131 -681 -237 -416 -199 -839 -542 -1114 -903 -25
-33 -50 -66 -56 -73 -27 -31 -156 -233 -205 -319 l-54 -95 -3 283 -3 284 -27
57 c-15 32 -44 76 -64 98 -44 47 -139 96 -205 105 l-46 7 1 -951 c1 -523 -2
-951 -6 -951 -4 0 -10 10 -14 23 -12 41 -171 360 -230 462 -113 197 -236 378
-383 565 -73 92 -87 109 -181 215 -71 80 -298 304 -385 380 -44 39 -85 75 -91
80 -6 6 -26 21 -44 35 -18 14 -38 30 -44 35 -55 49 -276 205 -396 280 -52 32
-106 65 -120 74 -112 70 -432 227 -600 294 -137 55 -366 133 -475 163 -71 18
-291 71 -332 79 -151 28 -314 52 -421 61 -37 3 -80 7 -97 10 -16 3 -144 7
-284 11 l-254 6 7 -254z"/>
</g>
</svg>
