<?xml version="1.0" encoding="UTF-8" standalone="no"?>
<!DOCTYPE svg PUBLIC "-//W3C//DTD SVG 1.1//EN" "http://www.w3.org/Graphics/SVG/1.1/DTD/svg11.dtd">
<svg width="100%" height="100%" viewBox="0 0 2700 1157" version="1.1" xmlns="http://www.w3.org/2000/svg" xmlns:xlink="http://www.w3.org/1999/xlink" xml:space="preserve" xmlns:serif="http://www.serif.com/" style="fill-rule:evenodd;clip-rule:evenodd;stroke-linejoin:round;stroke-miterlimit:2;">
    <g transform="matrix(3.125,0,0,3.125,0,0)">
        <g id="v2" transform="matrix(1.057599,0,0,1.055117,-21.406552,-39.835329)">
            <g transform="matrix(0.495674,0,0,0.654265,-73.344111,-206.646507)">
                <g transform="matrix(285.354943,0,0,216.186047,763,632.410047)">
                    <path d="M0.327,0.007C0.431,0.007 0.514,-0.038 0.555,-0.118L0.459,-0.174C0.427,-0.123 0.379,-0.1 0.326,-0.1C0.234,-0.1 0.164,-0.163 0.164,-0.267C0.164,-0.37 0.234,-0.434 0.326,-0.434C0.379,-0.434 0.427,-0.411 0.459,-0.36L0.555,-0.416C0.514,-0.497 0.431,-0.54 0.327,-0.54C0.158,-0.54 0.038,-0.427 0.038,-0.267C0.038,-0.107 0.158,0.007 0.327,0.007Z" style="fill:rgb(59,59,59);fill-rule:nonzero;"/>
                </g>
                <g transform="matrix(285.354943,0,0,216.186047,927.710292,632.410047)">
                    <path d="M0.385,-0.54C0.311,-0.54 0.248,-0.516 0.207,-0.472L0.207,-0.742L0.082,-0.742L0.082,-0L0.207,-0L0.207,-0.27C0.207,-0.377 0.267,-0.431 0.356,-0.431C0.436,-0.431 0.483,-0.385 0.483,-0.29L0.483,-0L0.608,-0L0.608,-0.306C0.608,-0.467 0.513,-0.54 0.385,-0.54Z" style="fill:rgb(59,59,59);fill-rule:nonzero;"/>
                </g>
                <g transform="matrix(285.354943,0,0,216.186047,1123.178428,632.410047)">
                    <path d="M0.474,-0.534L0.474,-0.264C0.474,-0.157 0.415,-0.103 0.328,-0.103C0.249,-0.103 0.203,-0.149 0.203,-0.246L0.203,-0.534L0.078,-0.534L0.078,-0.229C0.078,-0.068 0.171,0.007 0.308,0.007C0.377,0.007 0.44,-0.019 0.48,-0.068L0.48,-0L0.599,-0L0.599,-0.534L0.474,-0.534Z" style="fill:rgb(59,59,59);fill-rule:nonzero;"/>
                </g>
                <g transform="matrix(285.354943,0,0,216.186047,1317.505144,632.410047)">
                    <path d="M0.201,-0.456L0.201,-0.534L0.082,-0.534L0.082,-0L0.207,-0L0.207,-0.259C0.207,-0.368 0.267,-0.424 0.362,-0.424C0.371,-0.424 0.38,-0.423 0.391,-0.421L0.391,-0.54C0.302,-0.54 0.237,-0.512 0.201,-0.456Z" style="fill:rgb(59,59,59);fill-rule:nonzero;"/>
                </g>
                <g transform="matrix(285.354943,0,0,216.186047,1435.19236,632.410047)">
                    <path d="M0.327,0.007C0.431,0.007 0.514,-0.038 0.555,-0.118L0.459,-0.174C0.427,-0.123 0.379,-0.1 0.326,-0.1C0.234,-0.1 0.164,-0.163 0.164,-0.267C0.164,-0.37 0.234,-0.434 0.326,-0.434C0.379,-0.434 0.427,-0.411 0.459,-0.36L0.555,-0.416C0.514,-0.497 0.431,-0.54 0.327,-0.54C0.158,-0.54 0.038,-0.427 0.038,-0.267C0.038,-0.107 0.158,0.007 0.327,0.007Z" style="fill:rgb(59,59,59);fill-rule:nonzero;"/>
                </g>
                <g transform="matrix(285.354943,0,0,216.186047,1599.902652,632.410047)">
                    <path d="M0.385,-0.54C0.311,-0.54 0.248,-0.516 0.207,-0.472L0.207,-0.742L0.082,-0.742L0.082,-0L0.207,-0L0.207,-0.27C0.207,-0.377 0.267,-0.431 0.356,-0.431C0.436,-0.431 0.483,-0.385 0.483,-0.29L0.483,-0L0.608,-0L0.608,-0.306C0.608,-0.467 0.513,-0.54 0.385,-0.54Z" style="fill:rgb(59,59,59);fill-rule:nonzero;"/>
                </g>
            </g>
            <g transform="matrix(0.408911,0,0,0.654265,-7.143981,-105.615874)">
                <g transform="matrix(345.901768,0,0,216.186047,763,632.410047)">
                    <path d="M0.327,0.007C0.431,0.007 0.514,-0.038 0.555,-0.118L0.459,-0.174C0.427,-0.123 0.379,-0.1 0.326,-0.1C0.234,-0.1 0.164,-0.163 0.164,-0.267C0.164,-0.37 0.234,-0.434 0.326,-0.434C0.379,-0.434 0.427,-0.411 0.459,-0.36L0.555,-0.416C0.514,-0.497 0.431,-0.54 0.327,-0.54C0.158,-0.54 0.038,-0.427 0.038,-0.267C0.038,-0.107 0.158,0.007 0.327,0.007Z" style="fill:rgb(59,59,59);fill-rule:nonzero;"/>
                </g>
                <g transform="matrix(345.901768,0,0,216.186047,963.968927,632.410047)">
                    <path d="M0.286,-0.54C0.2,-0.54 0.117,-0.518 0.06,-0.474L0.109,-0.383C0.149,-0.416 0.211,-0.436 0.271,-0.436C0.36,-0.436 0.404,-0.393 0.404,-0.32L0.404,-0.312L0.266,-0.312C0.104,-0.312 0.044,-0.242 0.044,-0.153C0.044,-0.06 0.121,0.007 0.243,0.007C0.323,0.007 0.381,-0.019 0.411,-0.065L0.411,-0L0.529,-0L0.529,-0.313C0.529,-0.467 0.44,-0.54 0.286,-0.54ZM0.269,-0.084C0.205,-0.084 0.167,-0.113 0.167,-0.158C0.167,-0.197 0.19,-0.229 0.275,-0.229L0.404,-0.229L0.404,-0.167C0.383,-0.112 0.33,-0.084 0.269,-0.084Z" style="fill:rgb(59,59,59);fill-rule:nonzero;"/>
                </g>
                <g transform="matrix(345.901768,0,0,216.186047,1173.931301,632.410047)">
                    <path d="M0.756,-0.54C0.671,-0.54 0.599,-0.506 0.556,-0.451C0.519,-0.511 0.454,-0.54 0.376,-0.54C0.303,-0.54 0.241,-0.514 0.201,-0.466L0.201,-0.534L0.082,-0.534L0.082,-0L0.207,-0L0.207,-0.271C0.207,-0.377 0.263,-0.431 0.346,-0.431C0.422,-0.431 0.466,-0.385 0.466,-0.29L0.466,-0L0.591,-0L0.591,-0.271C0.591,-0.377 0.648,-0.431 0.73,-0.431C0.806,-0.431 0.85,-0.385 0.85,-0.29L0.85,-0L0.975,-0L0.975,-0.306C0.975,-0.467 0.885,-0.54 0.756,-0.54Z" style="fill:rgb(59,59,59);fill-rule:nonzero;"/>
                </g>
                <g transform="matrix(345.901768,0,0,216.186047,1538.165862,632.410047)">
                    <path d="M0.378,-0.54C0.305,-0.54 0.243,-0.515 0.201,-0.464L0.201,-0.534L0.082,-0.534L0.082,0.194L0.207,0.194L0.207,-0.065C0.25,-0.016 0.31,0.007 0.378,0.007C0.534,0.007 0.649,-0.101 0.649,-0.267C0.649,-0.432 0.534,-0.54 0.378,-0.54ZM0.364,-0.1C0.274,-0.1 0.205,-0.165 0.205,-0.267C0.205,-0.369 0.274,-0.434 0.364,-0.434C0.454,-0.434 0.522,-0.369 0.522,-0.267C0.522,-0.165 0.454,-0.1 0.364,-0.1Z" style="fill:rgb(59,59,59);fill-rule:nonzero;"/>
                </g>
            </g>
            <g transform="matrix(0.3455,0,0,0.3455,156.112683,207.403826)">
                <g transform="matrix(1,0,0,1,-682.666667,-682.666667)">
                    <g id="_-402f24ff" serif:id="#402f24ff" transform="matrix(1.333333,0,0,1.333333,0,0)">
                        <g transform="matrix(0.75,0,0,0.75,0,0)">
                            <path d="M596.346,697.322C595.65,695.235 572.315,664.061 563.55,666.252C552.309,669.062 514.751,713.793 502.274,738.748C500.866,741.564 498.261,739.589 478.109,769.817C466.026,787.941 455.686,808.621 453.944,812.106C451.86,816.274 434.979,846.694 447.902,885.465C452.468,899.163 479.434,920.934 522.124,922.576C532.267,922.966 532.214,920.85 648.991,920.85C700.513,920.85 700.111,921.48 751.693,925.165C806.935,929.111 806.241,919.791 861.3,917.397C877.849,916.678 877.408,914.808 894.095,914.808C896.275,914.808 915.671,914.808 920.85,909.63C920.949,909.53 938.721,903.083 927.754,881.15C923.525,872.692 910.136,835.051 875.971,800.887C848.137,773.052 790.105,674.457 775.858,660.211C764.283,648.635 766.799,646.837 755.145,635.182C752.245,632.282 721.487,601.524 719.761,598.072C707.173,572.896 663.614,584.768 648.991,606.702C646.618,610.261 610.92,673.254 601.524,682.65C598.915,685.259 600.601,686.162 598.072,688.691C598.055,688.708 595.509,698.132 595.483,698.185" style="fill:rgb(186,157,137);"/>
                        </g>
                        <g transform="matrix(0.75,0,0,0.75,0,0)">
                            <path d="M525.576,495.37C524.061,496.127 472.891,534.286 456.533,567.002C450.026,580.016 438.804,602.459 433.231,747.378C431.437,794.02 431.163,796.467 434.957,795.708C492.654,784.169 492.893,741.224 505.726,728.391C518.148,715.969 530.334,672.935 547.152,664.526C550.079,663.063 548.293,661.269 551.467,660.211C553.622,659.493 564.413,655.895 578.222,669.704C580.228,671.71 594.703,694.649 597.209,692.143C605.651,683.701 608.94,686.629 631.73,652.443C632.222,651.706 650.646,631.874 651.58,630.004C653.975,625.214 671.103,613.234 680.061,599.798C694.951,577.463 698.97,580.655 699.911,582.537C718.105,618.926 744.575,609.726 779.311,679.198C816.399,753.375 832.743,748.089 839.724,762.05C843.463,769.528 865.778,791.883 868.204,799.161C869.93,804.339 879.173,813.582 880.287,814.695C889.465,823.874 884.808,826.984 894.095,836.271C908.422,850.598 918.414,855.039 920.85,856.121C935.791,844.168 934.649,843.202 940.7,825.052C945.394,810.97 943.837,648.362 915.671,592.03C885.397,531.481 875.239,539.515 857.847,522.124C856.504,520.78 801.925,478.628 768.091,461.711C750.279,452.805 749.893,454.788 701.637,442.724C646.699,428.99 567.175,462.349 535.357,483.561C524.079,491.08 507.664,496.791 518.73,500.48C519.559,500.756 515.22,499.685 515.22,499.685" style="fill:rgb(177,210,255);"/>
                        </g>
                        <path d="M500.39,318.44C508.59,317.68 516.87,317.94 525.04,318.89C593.24,322.45 657.91,363.53 690.79,423.29C700.61,441.07 707.84,460.31 711.79,480.25C714.17,492.69 715.41,505.34 715.83,517.99C715.8,558.66 715.85,599.33 715.83,640C715.82,647.61 715.06,655.31 712.54,662.54C706.96,680.02 692.8,694.25 675.74,700.74C670.05,702.67 664.06,704.9 657.98,703.45C576.68,703.44 495.32,703.45 414,703.45C399.32,703.35 384.63,703.67 369.96,703.28C366.96,702.89 364.05,703.99 361.06,703.93C337.19,700.58 316.24,681.71 310.89,658.12C307.79,645.97 309.49,633.37 308.94,621C309.1,586.66 309.08,552.3 309.06,517.95C310.34,486.28 317.3,454.44 332.32,426.33C340.95,409.46 352.21,393.99 365.28,380.28C393.59,351.58 430.16,330.88 469.74,322.67C479.82,320.41 490.1,319.2 500.39,318.44M413.09,375.07C386.64,392.42 365.71,417.6 352.13,446.06C342.3,467.7 336.96,491.27 335.93,514.99C335.66,534.56 335.5,554.14 335.79,573.71C341.43,566.63 346.38,559.03 351.72,551.72C364.82,533.48 377.79,515.14 390.74,496.78C393.7,492.46 396.74,488.16 400.24,484.25C406.88,476.89 418.66,474.72 427.36,479.61C434.73,484.04 438.78,491.97 444.27,498.29C448.64,493.54 451.96,487.96 455.93,482.89C469.97,463.9 483.64,444.63 497.65,425.61C501.29,420.57 506.02,415.85 512.22,414.29C519.19,412.06 527.09,413.69 532.82,418.16C538.41,422.33 541.92,428.5 546.08,433.96C594.25,499.54 642.34,565.21 690.12,631.07C690.11,592.63 690.07,554.18 690.14,515.75C689.89,515.33 689.6,514.94 689.27,514.6C687.53,485.46 679.55,456.55 664.67,431.34C654.23,414.07 641.02,398.43 625.39,385.64C595.39,360.68 556.97,345.94 517.96,344.64C480.91,343.18 443.77,354.41 413.09,375.07M495.63,478.62C484.83,493.14 474.33,507.89 463.2,522.16C476.2,539.73 489.13,557.35 502.05,574.97C505.48,579.31 505.94,585.62 503.55,590.54C500.47,595.67 494.23,599.12 488.21,597.74C483.2,597.09 479.27,593.55 476.28,589.72C464.24,573.72 452.45,557.54 440.5,541.47C432.54,531.22 425.26,520.43 417.07,510.37C413.73,514.37 411.1,518.88 408.09,523.12C398.68,536.98 388.67,550.41 379.13,564.18C366.26,581.68 354.05,599.65 341.25,617.2C339.04,620.43 336.25,623.59 335.81,627.63C334.74,636.26 334.81,645.24 337.38,653.61C339.85,661.77 345.62,668.87 353.15,672.89C360.38,676.96 368.9,677.38 377.01,677.33C467,677.32 557,677.35 647,677.35C654.34,677.38 661.98,677 668.72,673.75C672.56,672.04 675.83,669.37 679.01,666.68C676.58,661.77 673.02,657.58 669.87,653.14C664.75,645.94 659.3,638.98 654.22,631.75C629.19,597.2 603.49,563.13 578.49,528.55C558.59,501.51 538.65,474.5 519,447.28C510.75,457.38 503.42,468.17 495.63,478.62Z" style="fill:rgb(51,51,51);fill-rule:nonzero;"/>
                        <path d="M364.69,704.12C371.09,703.21 377.56,703.59 384,703.55C467.33,703.56 550.67,703.55 634,703.55C642.78,703.59 651.56,703.31 660.33,703.96C658.38,704.96 656.15,704.85 654.04,704.91C559.34,704.9 464.64,704.91 369.94,704.88C368.16,704.9 366.37,704.74 364.69,704.12Z" style="fill:rgb(64,47,36);fill-rule:nonzero;"/>
                    </g>
                </g>
            </g>
        </g>
    </g>
</svg>
