<?xml version="1.0" encoding="UTF-8" standalone="no"?>
<!DOCTYPE svg PUBLIC "-//W3C//DTD SVG 1.1//EN" "http://www.w3.org/Graphics/SVG/1.1/DTD/svg11.dtd">
<svg width="100%" height="100%" viewBox="0 0 2629 484" version="1.1" xmlns="http://www.w3.org/2000/svg" xmlns:xlink="http://www.w3.org/1999/xlink" xml:space="preserve" xmlns:serif="http://www.serif.com/" style="fill-rule:evenodd;clip-rule:evenodd;stroke-linejoin:round;stroke-miterlimit:2;">
    <g id="Long" transform="matrix(1,0,0,1,-491.946,-449.225)">
        <g transform="matrix(1,0,0,1,-434.21,-611.603)">
            <g transform="matrix(4.16667,0,0,4.16667,609.489,802.495)">
                <path d="M128,132.398L128,148C128,156.838 120.836,164 112,164L108,164C102.426,164 98,159.545 98,154C98,172.115 101.885,176 120,176C138.115,176 142,172.115 142,154C142,138.953 139.289,133.738 128,132.398Z" style="fill:rgb(155,133,121);fill-rule:nonzero;"/>
            </g>
            <g transform="matrix(4.16667,0,0,4.16667,609.489,802.495)">
                <path d="M108,164L112,164C120.836,164 128,156.838 128,148L128,132.398C125.697,132.125 123.068,132 120,132C101.885,132 98,135.885 98,154C98,159.545 102.426,164 108,164Z" style="fill:rgb(116,97,89);fill-rule:nonzero;"/>
            </g>
            <g transform="matrix(4.16667,0,0,4.16667,609.489,802.495)">
                <path d="M128,148C119.16,148 112,155.164 112,164C120.836,164 128,156.838 128,148Z" style="fill:rgb(237,231,223);fill-rule:nonzero;"/>
            </g>
            <g transform="matrix(4.16667,0,0,4.16667,609.489,802.495)">
                <path d="M114,100L128,114C128,100.527 122.662,88.311 114,79.321L114,100Z" style="fill:rgb(71,138,121);fill-rule:nonzero;"/>
            </g>
            <g transform="matrix(4.16667,0,0,4.16667,609.489,802.495)">
                <path d="M114,100L114,79.321C108.986,74.118 102.861,70.002 96,67.352L96,82L114,100Z" style="fill:rgb(71,138,121);fill-rule:nonzero;"/>
            </g>
            <g transform="matrix(4.16667,0,0,4.16667,609.489,802.495)">
                <path d="M96,67.352C90.414,65.196 84.347,64 78,64L96,82L96,67.352Z" style="fill:rgb(71,138,121);fill-rule:nonzero;"/>
            </g>
            <g transform="matrix(4.16667,0,0,4.16667,609.489,802.495)">
                <path d="M78,64C78,74.375 81.16,84.012 86.57,92L106,92L78,64Z" style="fill:rgb(128,199,163);fill-rule:nonzero;"/>
            </g>
            <g transform="matrix(4.16667,0,0,4.16667,609.489,802.495)">
                <path d="M106,92L86.57,92C95.558,105.275 110.76,114 128,114L106,92Z" style="fill:rgb(128,199,163);fill-rule:nonzero;"/>
            </g>
            <g transform="matrix(4.16667,0,0,4.16667,609.489,802.495)">
                <path d="M140,72.104C132.666,78.34 128,87.62 128,98L140,86L140,72.104Z" style="fill:rgb(71,138,121);fill-rule:nonzero;"/>
            </g>
            <g transform="matrix(4.16667,0,0,4.16667,609.489,802.495)">
                <path d="M162,64C153.604,64 145.932,67.059 140,72.104L140,86L162,64Z" style="fill:rgb(71,138,121);fill-rule:nonzero;"/>
            </g>
            <g transform="matrix(4.16667,0,0,4.16667,609.489,802.495)">
                <path d="M128,98C140.99,98 152.271,90.709 157.996,80L146,80L128,98Z" style="fill:rgb(128,199,163);fill-rule:nonzero;"/>
            </g>
            <g transform="matrix(4.16667,0,0,4.16667,609.489,802.495)">
                <path d="M146,80L157.996,80C160.545,75.231 162,69.788 162,64L146,80Z" style="fill:rgb(128,199,163);fill-rule:nonzero;"/>
            </g>
            <g transform="matrix(4.16667,0,0,4.16667,609.489,802.495)">
                <path d="M120,134C102.99,134 100,136.99 100,154C100,171.01 102.99,174 120,174C137.01,174 140,171.01 140,154C140,136.99 137.01,134 120,134ZM120,178C100.711,178 96,173.289 96,154C96,134.711 100.711,130 120,130C139.289,130 144,134.711 144,154C144,173.289 139.289,178 120,178Z" style="fill:rgb(76,69,65);fill-rule:nonzero;"/>
            </g>
            <g transform="matrix(4.16667,0,0,4.16667,609.489,802.495)">
                <path d="M156.746,78L150.828,78L159.555,69.274C159.041,72.356 158.076,75.282 156.746,78ZM133.273,95.555L146.828,82L154.432,82C149.609,89.059 142.041,94.094 133.273,95.555ZM138,76.891L138,85.172L130.445,92.727C131.445,86.715 134.137,81.278 138,76.891ZM142,73.065C146.182,69.704 151.213,67.364 156.727,66.446L142,81.172L142,73.065ZM114.168,161.832C115.102,155.844 119.844,151.102 125.832,150.168C124.898,156.156 120.156,160.898 114.168,161.832ZM116,99.172L116,84.788C121.254,91.604 124.709,99.85 125.676,108.848L116,99.172ZM90.597,94L105.172,94L122.848,111.676C109.844,110.277 98.386,103.691 90.597,94ZM87.722,90C83.746,83.864 81.144,76.778 80.324,69.153L101.172,90L87.722,90ZM94,68.77L94,77.172L83.152,66.325C86.912,66.729 90.548,67.545 94,68.77ZM98,70.391C103.238,72.805 107.979,76.12 112,80.161L112,95.172L98,81.172L98,70.391ZM162,62C148.066,62 135.98,69.973 130,81.584L130,76C130,73.791 128.209,72 126,72L126,94.014C118.15,75.233 99.593,62 78,62L76,62L76,64C76,92.004 98.25,114.893 126,115.949L126,146.117C117.67,147.043 111.043,153.67 110.117,162L108,162C103.514,162 100,158.486 100,154L96,154C96,160.617 101.383,166 108,166L112,166C121.926,166 130,157.926 130,148L130,99.899C148.918,98.852 164,83.174 164,64L164,62L162,62Z" style="fill:rgb(76,69,65);fill-rule:nonzero;"/>
            </g>
        </g>
        <g transform="matrix(1.67314,0,0,1.67314,-168.035,312.008)">
            <g transform="matrix(222.717,0,0,222.717,604.931,323.631)">
                <path d="M0.415,0.015C0.524,0.015 0.613,-0.02 0.678,-0.081L0.602,-0.181C0.544,-0.131 0.486,-0.111 0.417,-0.111C0.279,-0.111 0.184,-0.209 0.184,-0.353C0.184,-0.493 0.278,-0.589 0.414,-0.589C0.482,-0.589 0.539,-0.566 0.596,-0.517L0.673,-0.617C0.605,-0.678 0.517,-0.715 0.417,-0.715C0.197,-0.715 0.043,-0.566 0.043,-0.347C0.043,-0.133 0.192,0.015 0.415,0.015Z" style="fill:rgb(65,58,53);fill-rule:nonzero;"/>
            </g>
            <g transform="matrix(222.717,0,0,222.717,757.938,323.631)">
                <path d="M0.069,-0L0.202,-0L0.202,-0.261C0.202,-0.339 0.255,-0.391 0.324,-0.391C0.391,-0.391 0.43,-0.348 0.43,-0.27L0.43,-0L0.563,-0L0.563,-0.283C0.563,-0.434 0.484,-0.504 0.36,-0.504C0.283,-0.504 0.222,-0.461 0.192,-0.408L0.189,-0.408C0.199,-0.456 0.202,-0.507 0.202,-0.563L0.202,-0.7L0.069,-0.7L0.069,-0Z" style="fill:rgb(65,58,53);fill-rule:nonzero;"/>
            </g>
            <g transform="matrix(222.717,0,0,222.717,893.35,323.631)">
                <path d="M0.267,0.01C0.341,0.01 0.401,-0.025 0.43,-0.085L0.433,-0.085C0.43,-0.051 0.43,-0.025 0.43,-0L0.55,-0L0.55,-0.494L0.417,-0.494L0.417,-0.233C0.417,-0.157 0.37,-0.103 0.302,-0.103C0.236,-0.103 0.195,-0.15 0.195,-0.226L0.195,-0.494L0.062,-0.494L0.062,-0.223C0.062,-0.078 0.139,0.01 0.267,0.01Z" style="fill:rgb(65,58,53);fill-rule:nonzero;"/>
            </g>
            <g transform="matrix(222.717,0,0,222.717,1027.87,323.631)">
                <path d="M0.069,-0L0.202,-0L0.202,-0.253C0.202,-0.337 0.249,-0.386 0.319,-0.386C0.336,-0.386 0.353,-0.384 0.369,-0.378L0.403,-0.493C0.385,-0.5 0.36,-0.504 0.334,-0.504C0.261,-0.504 0.208,-0.461 0.189,-0.409L0.186,-0.409C0.189,-0.443 0.19,-0.469 0.19,-0.494L0.069,-0.494L0.069,-0Z" style="fill:rgb(65,58,53);fill-rule:nonzero;"/>
            </g>
            <g transform="matrix(222.717,0,0,222.717,1113.39,323.631)">
                <path d="M0.299,0.011C0.37,0.011 0.429,-0.008 0.483,-0.048L0.424,-0.146C0.384,-0.113 0.345,-0.102 0.303,-0.102C0.227,-0.102 0.166,-0.155 0.166,-0.248C0.166,-0.337 0.226,-0.392 0.307,-0.392C0.342,-0.392 0.38,-0.383 0.415,-0.357L0.475,-0.453C0.429,-0.487 0.368,-0.505 0.303,-0.505C0.149,-0.505 0.034,-0.408 0.034,-0.246C0.034,-0.081 0.147,0.011 0.299,0.011Z" style="fill:rgb(65,58,53);fill-rule:nonzero;"/>
            </g>
            <g transform="matrix(222.717,0,0,222.717,1223.42,323.631)">
                <path d="M0.069,-0L0.202,-0L0.202,-0.261C0.202,-0.339 0.255,-0.391 0.324,-0.391C0.391,-0.391 0.43,-0.348 0.43,-0.27L0.43,-0L0.563,-0L0.563,-0.283C0.563,-0.434 0.484,-0.504 0.36,-0.504C0.283,-0.504 0.222,-0.461 0.192,-0.408L0.189,-0.408C0.199,-0.456 0.202,-0.507 0.202,-0.563L0.202,-0.7L0.069,-0.7L0.069,-0Z" style="fill:rgb(65,58,53);fill-rule:nonzero;"/>
            </g>
            <g transform="matrix(222.717,0,0,222.717,1401.37,323.631)">
                <path d="M0.251,-0L0.377,-0L0.467,-0.276C0.494,-0.358 0.52,-0.443 0.537,-0.493L0.54,-0.493C0.555,-0.443 0.583,-0.354 0.608,-0.277L0.7,-0L0.828,-0L1.062,-0.7L0.916,-0.7L0.819,-0.38C0.799,-0.315 0.782,-0.253 0.765,-0.186L0.762,-0.186C0.752,-0.226 0.727,-0.309 0.702,-0.38L0.594,-0.7L0.484,-0.7L0.376,-0.378C0.348,-0.295 0.332,-0.239 0.318,-0.186L0.315,-0.186C0.304,-0.234 0.28,-0.316 0.261,-0.377L0.16,-0.7L0.012,-0.7L0.251,-0Z" style="fill:rgb(65,58,53);fill-rule:nonzero;"/>
            </g>
            <g transform="matrix(222.717,0,0,222.717,1624.75,323.631)">
                <path d="M0.296,0.011C0.462,0.011 0.568,-0.097 0.568,-0.25C0.568,-0.399 0.466,-0.505 0.306,-0.505C0.14,-0.505 0.034,-0.397 0.034,-0.244C0.034,-0.095 0.136,0.011 0.296,0.011ZM0.3,-0.102C0.219,-0.102 0.166,-0.166 0.166,-0.25C0.166,-0.33 0.219,-0.392 0.303,-0.392C0.383,-0.392 0.436,-0.328 0.436,-0.244C0.436,-0.164 0.382,-0.102 0.3,-0.102Z" style="fill:rgb(65,58,53);fill-rule:nonzero;"/>
            </g>
            <g transform="matrix(222.717,0,0,222.717,1755.26,323.631)">
                <path d="M0.069,-0L0.202,-0L0.202,-0.253C0.202,-0.337 0.249,-0.386 0.319,-0.386C0.336,-0.386 0.353,-0.384 0.369,-0.378L0.403,-0.493C0.385,-0.5 0.36,-0.504 0.334,-0.504C0.261,-0.504 0.208,-0.461 0.189,-0.409L0.186,-0.409C0.189,-0.443 0.19,-0.469 0.19,-0.494L0.069,-0.494L0.069,-0Z" style="fill:rgb(65,58,53);fill-rule:nonzero;"/>
            </g>
            <g transform="matrix(222.717,0,0,222.717,1843.68,323.631)">
                <path d="M0.318,-0.255L0.515,-0.494L0.361,-0.494L0.267,-0.378C0.239,-0.343 0.223,-0.322 0.202,-0.291L0.199,-0.292C0.201,-0.334 0.202,-0.387 0.202,-0.464L0.202,-0.7L0.069,-0.7L0.069,-0L0.202,-0L0.202,-0.085C0.202,-0.134 0.201,-0.171 0.198,-0.215L0.201,-0.216C0.221,-0.185 0.246,-0.154 0.276,-0.119L0.38,-0L0.546,-0L0.318,-0.255Z" style="fill:rgb(65,58,53);fill-rule:nonzero;"/>
            </g>
        </g>
    </g>
</svg>
